<svg width="225" height="250" viewBox="0 0 225 250" fill="none" xmlns="http://www.w3.org/2000/svg">
<g clip-path="url(#clip0_5679_40991)">
<path d="M222.975 49.0889C223.914 48.5191 225.088 46.4796 224.995 45.3726C224.923 44.8141 224.762 44.2708 224.517 43.7638C222.27 38.4278 217.588 34.8685 213.62 30.7714C211.069 28.1441 208.272 24.9947 207.277 21.6487C205.845 16.8412 204.218 12.1139 202.708 7.33423C201.351 3.14587 199.749 -0.959086 197.911 -4.95939C196.608 -7.85939 194.681 -10.2635 193.473 -13.2385C193.257 -13.771 193.058 -14.3106 192.853 -14.8513C192.256 -16.446 176.28 -58.792 167.646 -76.5042C167.384 -77.1681 167.115 -77.8292 166.827 -78.4809C165.813 -80.7641 164.434 -83.9646 162.853 -85.7821C161.894 -86.8027 160.817 -87.7052 159.644 -88.4705C158.459 -89.3147 157.273 -90.157 156.085 -90.9977C154.001 -92.4739 149.198 -93.2483 146.898 -94.1431C146.218 -94.4173 145.556 -94.733 144.915 -95.0884C140.516 -97.4681 130.476 -99.0826 127.187 -103.28C126.94 -103.586 126.71 -103.906 126.5 -104.239C126.011 -105.024 125.666 -105.891 125.481 -106.797C125.288 -107.715 125.278 -108.662 125.453 -109.583C125.772 -111.179 126.69 -112.52 127.386 -113.96C128.354 -115.966 128.589 -118.249 129.456 -120.259C130.221 -122.035 131.295 -123.262 131.766 -125.282C132.333 -127.936 132.226 -130.69 131.457 -133.293C130.793 -135.64 129.742 -136.613 130.286 -139.223C130.678 -141.321 130.765 -143.465 130.544 -145.588C130.175 -149.79 127.436 -155.439 124.578 -158.211C120.248 -162.403 114.144 -163.551 108.606 -162.687C107.302 -162.446 106.031 -162.056 104.816 -161.525L104.6 -161.441C100.985 -160.012 97.9694 -158.305 95.0185 -154.625C93.1359 -152.186 91.8377 -149.348 91.2237 -146.328C91.0147 -145.391 90.8531 -144.445 90.7395 -143.492C90.5467 -141.614 90.4974 -139.723 90.5923 -137.837C90.6011 -137.422 90.6104 -137.016 90.6197 -136.616C90.6197 -136.395 88.8214 -135.039 88.6145 -134.592C88.0425 -133.379 88.2035 -132.615 88.3971 -131.211C88.8722 -127.938 89.6802 -124.723 90.8086 -121.614C91.6479 -119.271 93.2848 -118.1 94.3409 -116.033C94.508 -115.68 94.6422 -115.312 94.7419 -114.935C96.5397 -108.856 97.923 -103.216 92.3815 -99.6745L91.684 -99.2268C90.7064 -98.5995 89.7839 -98.0059 88.8574 -97.4693C88.4564 -97.2368 88.0366 -97.0088 87.6077 -96.7774C86.8236 -96.3536 86.0169 -95.9105 85.2008 -95.4036C84.1459 -94.764 75.6314 -93.9896 74.7665 -93.1065C72.9932 -92.7779 71.2662 -92.236 69.623 -91.4926C67.7191 -90.4905 66.0057 -89.1622 64.5605 -87.5681C63.5886 -86.5017 62.6921 -85.3689 61.8775 -84.178C60.6298 -82.3448 59.5525 -80.4013 58.6591 -78.3716C58.0686 -77.0263 57.5315 -75.6598 57.0479 -74.2722C47.8899 -55.4815 33.4996 -16.3769 32.9265 -14.8455C32.7219 -14.3048 32.5232 -13.7652 32.3064 -13.2326C31.098 -10.2576 29.4541 -9.25301 28.0975 -5.06464C26.5863 -0.283245 23.0722 7.42198 21.64 12.229C20.642 15.5749 19.5998 19.2482 18.0467 22.3685C16.4024 25.6726 13.9293 28.4912 11.3782 31.1191C7.41009 35.2144 2.72818 38.7755 0.481113 44.111C0.236379 44.618 0.0748597 45.1612 0.00275434 45.7197C-0.0902439 46.8243 1.0839 48.8662 2.02318 49.4366C4.66957 51.0476 2.45742 52.2551 1.91222 54.5714C1.58963 55.9348 1.88131 57.5598 3.0124 58.3889C3.32038 58.5597 3.59592 58.7834 3.82622 59.0499C4.00282 59.4043 4.09056 59.7964 4.08193 60.1924C4.18091 60.7772 4.40399 61.3341 4.73611 61.8255C5.06823 62.3169 5.50174 62.7315 6.00743 63.0414C6.51311 63.3512 7.07915 63.5491 7.6677 63.6218C8.25625 63.6944 8.85367 63.6402 9.41951 63.4627C10.4872 65.2069 12.5407 65.2342 14.2298 64.5917C15.6422 64.0621 14.5861 64.2151 15.6998 64.8645C16.5902 65.2871 17.5821 65.4483 18.5605 65.3295C19.6887 65.1626 20.7251 64.6122 21.4953 63.7708C22.8321 62.4214 23.626 60.6359 24.391 58.8918C25.6435 56.0429 26.5578 53.1895 27.6674 50.2871C30.7206 42.2999 35.3096 31.172 39.3207 23.6284C43.1865 16.3656 46.8896 9.01441 50.5747 1.65568C51.1658 0.479522 51.9877 0.47722 53.528 -4.3379L57.1281 -12.3111C57.2427 -12.5637 57.3398 -12.8238 57.4187 -13.0896C58.1427 -13.7847 58.7755 -14.5689 59.3019 -15.4234C61.1183 -18.3054 67.9624 -31.7978 73.329 -42.5745C76.5496 -37.0361 79.0647 -32.5984 79.0955 -32.1972C79.3472 -29.8478 79.4443 -5.26173 79.3815 -2.89952C79.2246 -0.160571 80.2021 2.02547 80.3358 4.765C80.516 9.64 78.8973 14.3168 78.6392 19.1592C78.6206 19.5557 78.5886 20.0999 78.5654 20.2755C78.2934 22.3318 77.4791 24.1447 77.2867 25.8092C77.2588 26.022 77.2401 26.2243 77.2285 26.4185C77.1808 27.1771 77.2272 27.9388 77.3669 28.686C77.2587 28.8932 77.1632 29.1067 77.0809 29.3255C76.7031 30.3307 76.3345 31.3412 75.9887 32.3325C72.5594 42.0348 72.1468 52.1435 71.3342 62.4028C71.1128 64.9389 70.9274 67.5121 70.7902 70.0395C70.3014 78.7116 71.1326 87.4034 71.5458 96.079C71.6621 98.3761 71.744 100.719 71.8271 102.983C72.1223 110.952 72.4264 119.189 73.8469 127.357C73.883 127.556 73.9388 127.874 74.0399 128.252C73.7524 128.952 73.5498 129.684 73.4366 130.433C72.9893 133.597 72.7673 136.789 72.7722 139.984C72.7675 140.474 72.7629 140.962 72.7583 141.456C72.7495 142.913 72.7356 144.292 72.6385 145.606L72.6019 146.068C72.3996 147.729 72.4781 149.413 72.8343 151.049C72.9401 151.473 73.0669 151.874 73.1983 152.262C71.7603 154.323 71.3459 156.73 71.0134 158.663C70.9669 158.907 70.9261 159.147 70.8843 159.382C70.4966 161.632 70.2305 163.902 70.0869 166.18C69.8974 168.731 69.7381 171.396 69.6161 174.104C69.086 185.785 69.2703 197.616 69.4458 209.058C69.5702 216.981 69.6991 227.303 64.3093 233.736C61.4275 237.173 53.9215 241.364 57.9047 246.811C59.3851 248.831 64.1018 248.586 66.3797 248.646L83.1444 249.089C87.524 249.206 93.8392 248.591 92.278 242.628C91.1022 238.131 89.1056 234.151 88.8522 229.438C88.5848 224.48 89.5578 219.398 90.747 214.606C93.6706 202.795 96.5844 190.827 98.3089 178.596C99.4888 170.197 99.1227 162.298 99.1018 153.935C99.0415 148.886 99.509 143.844 100.497 138.891C101.649 133.067 103.682 127.85 105.333 122.201C107.443 115.082 108.203 89.2522 109.552 81.9516C109.861 80.2656 110.207 78.5342 110.575 76.7028C111.124 73.9702 111.705 71.0726 112.18 68.1115C112.645 70.9935 113.218 73.8348 113.78 76.6342C114.149 78.465 114.499 80.1947 114.804 81.8825C116.044 88.6895 118.792 116.238 121.586 125.028C121.789 125.667 121.978 126.67 122.162 127.634C122.36 128.699 122.569 129.797 122.868 130.899C123.24 132.424 123.894 133.866 124.795 135.151C123.656 137.656 123.822 140.377 123.914 141.857C124.029 144.583 124.41 147.29 125.053 149.942C126.376 154.89 126.529 158.34 126.293 163.542C126.095 168.012 125.886 172.632 125.886 177.231V177.457L125.905 177.678C126.294 181.867 127.03 186.017 128.104 190.084C128.743 192.621 129.46 195.139 130.152 197.578C130.876 200.137 131.562 202.559 132.171 204.999C134.403 213.984 136.399 222.516 136.233 231.827C136.178 234.843 135.942 237.947 134.606 240.649C133.541 242.794 131.595 247.055 134.394 248.712C135.249 249.149 136.184 249.41 137.142 249.481C145.628 250.586 154.233 249.73 162.75 248.868C164.4 248.702 166.982 248.605 167.9 247.088C171.601 243.328 164.503 239.782 162.538 237.596C159.95 234.648 158.078 231.14 157.069 227.349C154.787 219.08 156.216 209.957 156.617 201.513C157.115 190.974 157.166 180.805 155.871 170.322C155.156 164.534 154.893 158.649 153.255 153.018C152.688 150.822 152.309 148.582 152.121 146.321C151.656 142.18 151.191 138.038 150.726 133.897C150.499 132.222 150.396 130.533 150.418 128.842C150.532 126.16 150.908 123.495 151.541 120.887C152.829 115.221 153.009 109.051 153.363 103.267C153.834 95.5784 152.655 87.9761 152.655 80.293C152.052 69.3749 152.655 57.9674 150.437 47.2499C149.843 44.3848 150.018 41.4993 149.478 38.5941C148.909 35.5342 149.251 32.0546 149.251 28.9429C148.749 25.7738 149.17 22.6011 148.801 19.4144C148.506 16.8778 147.912 14.2488 147.378 11.6435C147.244 10.9474 147.043 10.2659 146.778 9.60864C146.583 9.12914 146.336 8.67286 146.04 8.24819C147.041 4.5854 146.455 0.0161624 146.658 -3.8257C146.7 -4.60089 146.74 -5.37256 146.778 -6.14078C146.912 -8.67275 146.756 -33.4292 146.89 -35.9664C146.958 -35.9569 147.025 -35.9373 147.088 -35.9083L146.737 -43.4176L149.637 -48.2664C155.079 -37.235 164.325 -18.8536 166.482 -15.4309C167.009 -14.5764 167.641 -13.7923 168.365 -13.0972C168.444 -12.8313 168.541 -12.5711 168.656 -12.3187L172.256 -4.34542C173.145 0.506906 175.38 4.93714 177.992 9.80168L178.3 10.3784C178.993 11.6633 179.643 12.8784 180.235 14.0534C183.92 21.4116 183.704 18.9952 187.57 26.2586C191.58 33.8022 194.281 41.951 197.335 49.9383C198.444 52.8406 199.359 55.6941 200.611 58.5429C201.376 60.2871 202.169 62.0726 203.507 63.422C204.277 64.2636 205.313 64.8141 206.442 64.9807C207.42 65.0995 208.412 64.9382 209.302 64.5156C210.416 63.8662 209.36 63.7133 210.772 64.2429C212.461 64.8859 214.515 64.858 215.583 63.1138C216.148 63.2912 216.746 63.3455 217.334 63.2728C217.923 63.2001 218.489 63.0022 218.995 62.6925C219.5 62.3827 219.934 61.9683 220.266 61.4769C220.598 60.9856 220.822 60.4289 220.921 59.8441C220.912 59.4481 221 59.0558 221.176 58.7011C221.406 58.4347 221.682 58.211 221.99 58.04C223.121 57.211 223.412 55.5865 223.09 54.2231C222.541 51.9057 220.327 50.6982 222.975 49.0889Z" stroke="#AFADC9" stroke-width="0.996" stroke-miterlimit="10"/>
<path d="M112.891 25.0964C113.982 25.0964 114.866 24.6844 114.866 24.1761C114.866 23.6678 113.982 23.2557 112.891 23.2557C111.801 23.2557 110.917 23.6678 110.917 24.1761C110.917 24.6844 111.801 25.0964 112.891 25.0964Z" fill="#AFADC9"/>
</g>
<defs>
<clipPath id="clip0_5679_40991">
<rect width="225" height="250" fill="white"/>
</clipPath>
</defs>
</svg>
