<svg width="226" height="250" viewBox="0 0 226 250" fill="none" xmlns="http://www.w3.org/2000/svg">
<g clip-path="url(#clip0_5679_41010)">
<path d="M110.577 -4.24121V28.6536" stroke="#AFADC9" stroke-width="0.919" stroke-miterlimit="10"/>
<path d="M81.554 67.0785C81.554 67.0785 96.266 81.2942 110.156 68.2355" stroke="#AFADC9" stroke-width="0.919" stroke-miterlimit="10"/>
<path d="M144.686 67.0785C144.686 67.0785 129.974 81.2942 116.084 68.2355" stroke="#AFADC9" stroke-width="0.919" stroke-miterlimit="10"/>
<path d="M2.02649 49.089C1.08677 48.5192 -0.0878427 46.4797 0.00519844 45.3727C0.0769281 44.8142 0.238541 44.2709 0.483778 43.764C2.73188 38.4279 7.41537 34.8687 11.3859 30.7716C13.9381 28.1442 16.7357 24.9948 17.7319 21.6489C19.1647 16.8413 20.7923 12.114 22.3031 7.33435C23.6604 3.14598 25.263 -0.958978 27.1023 -4.95927C28.406 -7.85927 30.3331 -10.2633 31.5421 -13.2383C31.759 -13.7709 31.9573 -14.3105 32.1626 -14.8512C32.7598 -16.4459 48.743 -58.7918 57.3813 -76.504C57.643 -77.168 57.9123 -77.8291 58.2001 -78.4808C59.2143 -80.7639 60.5941 -83.9645 62.1758 -85.782C63.1353 -86.8025 64.2131 -87.7051 65.3863 -88.4703C66.5722 -89.3145 67.7593 -90.1569 68.9475 -90.9976C71.0322 -92.4738 75.8372 -93.2482 78.1388 -94.143C78.8187 -94.4172 79.4812 -94.7329 80.1224 -95.0883C84.5232 -97.468 94.5676 -99.0825 97.8583 -103.28C98.106 -103.586 98.3355 -103.906 98.5457 -104.239C99.0353 -105.024 99.3805 -105.89 99.565 -106.797C99.7588 -107.715 99.7684 -108.662 99.593 -109.583C99.2743 -111.178 98.3561 -112.52 97.6594 -113.96C96.6912 -115.966 96.4557 -118.249 95.5887 -120.259C94.8234 -122.035 93.7482 -123.262 93.2777 -125.282C92.7106 -127.936 92.8168 -130.69 93.5865 -133.293C94.2512 -135.64 95.3026 -136.613 94.7583 -139.223C94.3656 -141.321 94.2787 -143.465 94.5001 -145.588C94.8688 -149.789 97.6094 -155.439 100.469 -158.21C104.801 -162.403 110.908 -163.551 116.448 -162.687C117.752 -162.446 119.025 -162.056 120.24 -161.524L120.456 -161.441C124.073 -160.012 127.089 -158.305 130.042 -154.625C131.925 -152.186 133.224 -149.347 133.839 -146.328C134.048 -145.391 134.209 -144.445 134.323 -143.492C134.516 -141.613 134.565 -139.723 134.47 -137.837C134.461 -137.422 134.452 -137.016 134.443 -136.616C134.443 -136.395 136.242 -135.039 136.449 -134.592C137.021 -133.379 136.86 -132.615 136.666 -131.211C136.191 -127.938 135.383 -124.722 134.254 -121.614C133.414 -119.271 131.776 -118.099 130.72 -116.033C130.553 -115.68 130.418 -115.312 130.319 -114.935C128.52 -108.856 127.136 -103.216 132.68 -99.6744L133.378 -99.2267C134.356 -98.5994 135.279 -98.0058 136.206 -97.4692C136.607 -97.2366 137.027 -97.0087 137.456 -96.7773C138.24 -96.3535 139.048 -95.9104 139.864 -95.4034C140.919 -94.7639 149.438 -93.9895 150.303 -93.1064C152.077 -92.7779 153.805 -92.236 155.449 -91.4924C157.354 -90.4904 159.068 -89.1621 160.514 -87.568C161.486 -86.5017 162.383 -85.3688 163.198 -84.1779C164.446 -82.3447 165.524 -80.4011 166.418 -78.3715C167.009 -77.0262 167.546 -75.6597 168.03 -74.2721C177.192 -55.4814 191.589 -16.3767 192.162 -14.8453C192.367 -14.3046 192.566 -13.7651 192.783 -13.2325C193.992 -10.2575 195.636 -9.25289 196.994 -5.06452C198.506 -0.283123 202.021 7.42211 203.454 12.2291C204.453 15.575 205.495 19.2483 207.049 22.3687C208.694 25.6727 211.168 28.4913 213.721 31.1192C217.691 35.2145 222.375 38.7756 224.623 44.1111C224.868 44.6182 225.029 45.1613 225.101 45.7198C225.194 46.8244 224.02 48.8663 223.08 49.4367C220.432 51.0477 222.646 52.2552 223.191 54.5715C223.514 55.9349 223.222 57.5599 222.09 58.389C221.782 58.5597 221.507 58.7835 221.276 59.05C221.1 59.4045 221.012 59.7966 221.02 60.1925C220.921 60.7774 220.698 61.3342 220.366 61.8256C220.034 62.317 219.6 62.7316 219.094 63.0415C218.588 63.3513 218.022 63.5492 217.433 63.6219C216.844 63.6946 216.246 63.6404 215.68 63.4628C214.612 65.207 212.558 65.2343 210.868 64.5919C209.455 64.0622 210.511 64.2152 209.397 64.8646C208.506 65.2872 207.514 65.4484 206.535 65.3297C205.406 65.1627 204.369 64.6123 203.599 63.7709C202.262 62.4215 201.467 60.6361 200.702 58.8919C199.449 56.043 198.534 53.1896 197.424 50.2873C194.369 42.3001 189.778 31.1721 185.765 23.6285C181.898 16.3657 178.193 9.01453 174.506 1.65581C173.915 0.479644 173.093 0.477342 171.552 -4.33777L167.95 -12.311C167.835 -12.5635 167.738 -12.8236 167.659 -13.0895C166.935 -13.7846 166.302 -14.5688 165.775 -15.4233C163.958 -18.3052 157.11 -31.7976 151.741 -42.5744C148.519 -37.036 146.003 -32.5982 145.972 -32.1971C145.72 -29.8476 145.623 -5.26161 145.686 -2.8994C145.843 -0.160449 144.865 2.02559 144.731 4.76512C144.551 9.64012 146.171 14.3169 146.429 19.1593C146.447 19.5559 146.479 20.1 146.503 20.2756C146.775 22.332 147.589 24.1448 147.782 25.8093C147.81 26.0221 147.828 26.2244 147.84 26.4186C147.888 27.1772 147.841 27.9389 147.702 28.6861C147.81 28.8933 147.905 29.1069 147.988 29.3256C148.366 30.3308 148.734 31.3413 149.08 32.3326C152.511 42.0349 152.924 52.1437 153.737 62.403C153.959 64.939 154.144 67.5123 154.281 70.0396C154.77 78.7117 153.939 87.4035 153.525 96.0791C153.409 98.3762 153.327 100.719 153.244 102.983C152.949 110.952 152.644 119.19 151.223 127.357C151.187 127.556 151.131 127.874 151.03 128.252C151.318 128.952 151.52 129.685 151.634 130.433C152.081 133.597 152.303 136.789 152.298 139.984C152.303 140.474 152.308 140.962 152.312 141.456C152.321 142.913 152.335 144.292 152.432 145.606L152.469 146.068C152.671 147.73 152.593 149.413 152.236 151.049C152.13 151.473 152.004 151.874 151.872 152.262C153.311 154.323 153.726 156.73 154.058 158.663C154.105 158.908 154.145 159.147 154.187 159.383C154.575 161.632 154.841 163.902 154.985 166.18C155.175 168.731 155.334 171.397 155.456 174.104C155.986 185.785 155.802 197.616 155.626 209.058C155.502 216.981 155.373 227.303 160.765 233.736C163.648 237.173 171.158 241.365 167.173 246.811C165.692 248.831 160.973 248.587 158.694 248.646L141.921 249.089C137.54 249.206 131.222 248.591 132.784 242.629C133.96 238.131 135.957 234.151 136.211 229.438C136.479 224.48 135.505 219.398 134.315 214.606C131.39 202.795 128.475 190.827 126.75 178.596C125.569 170.197 125.936 162.298 125.957 153.935C126.017 148.886 125.549 143.844 124.561 138.891C123.408 133.067 121.374 127.851 119.722 122.201C117.612 115.083 116.851 89.2523 115.501 81.9517C115.192 80.2657 114.846 78.5343 114.478 76.7029C113.929 73.9704 113.347 71.0727 112.872 68.1117C112.407 70.9936 111.834 73.8349 111.271 76.6343C110.903 78.4651 110.552 80.1948 110.247 81.8826C109.007 88.6896 106.258 116.238 103.462 125.028C103.259 125.667 103.07 126.67 102.885 127.634C102.688 128.699 102.478 129.797 102.18 130.899C101.807 132.424 101.153 133.866 100.252 135.151C101.391 137.656 101.225 140.377 101.133 141.857C101.018 144.583 100.637 147.291 99.9936 149.942C98.6695 154.89 98.5171 158.34 98.7527 163.542C98.9509 168.012 99.1598 172.633 99.1598 177.231V177.457L99.1411 177.678C98.7517 181.867 98.0159 186.017 96.9413 190.084C96.3016 192.621 95.5846 195.139 94.8926 197.579C94.1681 200.137 93.4813 202.559 92.8719 204.999C90.6394 213.984 88.6426 222.516 88.8083 231.827C88.8665 234.843 89.099 237.947 90.4365 240.649C91.5018 242.794 93.4481 247.055 90.6482 248.712C89.7923 249.149 88.8578 249.41 87.8994 249.481C79.4065 250.586 70.7996 249.73 62.2793 248.868C60.6279 248.702 58.0448 248.605 57.1272 247.088C53.4242 243.329 60.525 239.782 62.4917 237.597C65.0804 234.648 66.9526 231.14 67.9625 227.349C70.246 219.08 68.8161 209.957 68.4148 201.513C67.9165 190.974 67.8653 180.805 69.1615 170.322C69.8768 164.534 70.1396 158.649 71.7783 153.018C72.3457 150.822 72.7252 148.582 72.9128 146.322C73.378 142.18 73.8432 138.039 74.3084 133.897C74.5354 132.222 74.6385 130.533 74.6166 128.842C74.5031 126.16 74.1268 123.495 73.4932 120.887C72.2045 115.222 72.0248 109.051 71.6701 103.267C71.1991 95.5785 72.3784 87.9762 72.3784 80.2931C72.982 69.3751 72.3784 57.9675 74.598 47.2501C75.1918 44.3849 75.0167 41.4994 75.5569 38.5942C76.1268 35.5343 75.7843 32.0547 75.7843 28.9431C76.2868 25.7739 75.8657 22.6012 76.2344 19.4146C76.5298 16.8779 77.1241 14.2489 77.6585 11.6436C77.7923 10.9476 77.9932 10.2661 78.2586 9.60876C78.4533 9.12929 78.7008 8.67301 78.9965 8.24831C77.9958 4.58552 78.5819 0.0162845 78.3784 -3.82558C78.3365 -4.60077 78.2966 -5.37244 78.2586 -6.14065C78.1248 -8.67263 78.2807 -33.4291 78.147 -35.9663C78.0782 -35.9568 78.0112 -35.9372 77.9481 -35.9081L78.297 -43.4175L75.3953 -48.2663C69.9506 -37.2349 60.7006 -18.8535 58.5421 -15.4308C58.0156 -14.5763 57.3827 -13.7921 56.6586 -13.0971C56.5796 -12.8312 56.4825 -12.5711 56.3678 -12.3185L52.7653 -4.3453C51.8762 0.507028 49.6403 4.93727 47.0264 9.8018L46.7188 10.3785C46.0251 11.6634 45.3744 12.8785 44.783 14.0535C41.0963 21.4117 41.312 18.9954 37.4444 26.2587C33.432 33.8023 30.7297 41.9512 27.6751 49.9384C26.565 52.8407 25.6503 55.6942 24.3971 58.5431C23.6319 60.2872 22.8386 62.0727 21.5 63.4221C20.7296 64.2637 19.6928 64.8142 18.564 64.9808C17.5852 65.0996 16.5927 64.9383 15.7018 64.5157C14.5877 63.8663 15.6437 63.7134 14.2312 64.243C12.5413 64.8861 10.4869 64.8581 9.41863 63.1139C8.85253 63.2914 8.25501 63.3456 7.66623 63.2729C7.07744 63.2002 6.51105 63.0024 6.00511 62.6926C5.49918 62.3828 5.06545 61.9684 4.73307 61.4771C4.40068 60.9858 4.17735 60.429 4.07809 59.8442C4.087 59.4482 3.9994 59.0558 3.82283 58.7012C3.5923 58.4348 3.31672 58.2111 3.00871 58.0402C1.87651 57.2111 1.58514 55.5866 1.90787 54.2233C2.46089 51.9058 4.67351 50.6983 2.02649 49.089Z" stroke="#AFADC9" stroke-width="0.996" stroke-miterlimit="10"/>
</g>
<defs>
<clipPath id="clip0_5679_41010">
<rect width="225.104" height="250" fill="white"/>
</clipPath>
</defs>
</svg>
