<svg width="232" height="250" viewBox="0 0 232 250" fill="none" xmlns="http://www.w3.org/2000/svg">
<g clip-path="url(#clip0_5679_40999)">
<path d="M108.811 96.8279C108.811 96.8279 108.646 119.805 103.859 122.45" stroke="#AFADC9" stroke-width="0.919" stroke-miterlimit="10"/>
<path d="M122.976 96.8279C122.976 96.8279 123.141 119.805 127.929 122.45" stroke="#AFADC9" stroke-width="0.919" stroke-miterlimit="10"/>
<path d="M113.922 158.721V191.616" stroke="#AFADC9" stroke-width="0.919" stroke-miterlimit="10"/>
<path d="M84.9458 230.041C84.9458 230.041 99.6371 244.256 113.502 231.198" stroke="#AFADC9" stroke-width="0.919" stroke-miterlimit="10"/>
<path d="M147.976 230.041C147.976 230.041 133.288 244.256 119.42 231.198" stroke="#AFADC9" stroke-width="0.919" stroke-miterlimit="10"/>
<path d="M5.54729 212.049C4.60909 211.48 3.43573 209.44 3.52862 208.333C3.60057 207.775 3.7619 207.232 4.00643 206.724C6.2509 201.388 10.9274 197.829 14.8915 193.733C17.439 191.105 20.2328 187.955 21.2267 184.609C22.6572 179.802 24.2823 175.074 25.7906 170.295C27.1459 166.107 28.7458 162.002 30.582 158.002C31.8836 155.102 33.8076 152.697 35.0146 149.722C35.2312 149.19 35.4297 148.65 35.6346 148.109C36.2308 146.515 52.1884 104.169 60.8121 86.457C61.0734 85.7925 61.3428 85.1314 61.6296 84.4773C62.6421 82.1948 64.0197 78.9942 65.5989 77.1762C66.557 76.1559 67.633 75.2535 68.8042 74.4879C69.9882 73.6441 71.1733 72.8016 72.3596 71.9605C74.4415 70.4844 79.2388 69.7099 81.5361 68.8152C82.2149 68.5409 82.8762 68.2252 83.5164 67.8698C87.9101 65.4902 97.9383 63.8756 101.224 59.6791C101.471 59.373 101.7 59.0527 101.91 58.7198C102.399 57.9347 102.744 57.0684 102.928 56.1616C103.121 55.2442 103.131 54.2974 102.955 53.3762C102.638 51.7803 101.721 50.4384 101.026 48.9995C100.058 46.9931 99.8239 44.7105 98.9577 42.6995C98.1937 40.9239 97.1203 39.6971 96.6512 37.6768C96.0845 35.0228 96.1902 32.2689 96.9588 29.6664C97.6224 27.3187 98.6721 26.3454 98.1287 23.7361C97.7366 21.6381 97.6498 19.4944 97.8709 17.3715C98.2396 13.1704 100.975 7.52041 103.83 4.74889C108.155 0.556453 114.252 -0.591774 119.784 0.272179C121.086 0.513516 122.356 0.903664 123.569 1.43497L123.785 1.51751C127.396 2.94716 130.408 4.65354 133.356 8.33435C135.236 10.7733 136.532 13.6116 137.146 16.6309C137.355 17.5676 137.516 18.5144 137.629 19.4675C137.822 21.3457 137.871 23.2359 137.776 25.1216C137.768 25.5367 137.759 25.9425 137.749 26.3425C137.749 26.564 139.545 27.9198 139.752 28.3675C140.323 29.5803 140.162 30.3413 139.969 31.7477C139.495 35.0207 138.687 38.2367 137.56 41.3454C136.722 43.6885 135.088 44.8594 134.033 46.9268C133.866 47.2795 133.732 47.647 133.632 48.0245C131.836 54.1029 130.454 59.7437 135.99 63.2855L136.687 63.7326C137.662 64.3605 138.584 64.9535 139.509 65.4902C139.91 65.7227 140.329 65.9512 140.757 66.1821C141.541 66.6065 142.346 67.0489 143.162 67.5564C144.215 68.1959 152.72 68.9704 153.584 69.853C155.355 70.182 157.08 70.7239 158.721 71.4669C160.623 72.4691 162.335 73.7976 163.778 75.3919C164.749 76.4581 165.645 77.5906 166.459 78.7814C167.705 80.615 168.78 82.5587 169.673 84.5884C170.263 85.9338 170.799 87.3002 171.282 88.6878C180.429 107.478 194.803 146.583 195.375 148.114C195.58 148.655 195.778 149.194 195.995 149.727C197.202 152.702 198.844 153.706 200.199 157.895C201.709 162.677 205.218 170.381 206.649 175.188C207.646 178.535 208.687 182.208 210.238 185.329C211.88 188.632 214.351 191.451 216.899 194.079C220.863 198.174 225.539 201.735 227.783 207.071C228.028 207.578 228.19 208.121 228.261 208.68C228.354 209.784 227.181 211.826 226.243 212.396C223.6 214.007 225.809 215.215 226.355 217.532C226.676 218.895 226.385 220.519 225.255 221.348C224.949 221.519 224.675 221.743 224.446 222.009C224.269 222.364 224.181 222.756 224.19 223.152C224.091 223.737 223.868 224.294 223.536 224.785C223.204 225.276 222.771 225.691 222.266 226.001C221.761 226.311 221.196 226.508 220.608 226.581C220.02 226.654 219.423 226.6 218.858 226.422C217.792 228.166 215.741 228.194 214.054 227.551C212.643 227.022 213.698 227.174 212.585 227.824C211.696 228.247 210.705 228.408 209.728 228.289C208.601 228.122 207.566 227.572 206.797 226.73C205.462 225.381 204.668 223.595 203.905 221.851C202.653 219.002 201.74 216.149 200.631 213.247C197.582 205.259 192.999 194.131 188.992 186.587C185.13 179.324 181.431 171.973 177.751 164.615C177.16 163.439 176.34 163.436 174.801 158.621L171.202 150.648C171.087 150.396 170.99 150.135 170.912 149.869C170.188 149.174 169.557 148.39 169.031 147.536C167.216 144.654 160.381 131.161 155.02 120.384C151.803 125.922 149.291 130.36 149.26 130.762C149.008 133.11 148.911 157.697 148.974 160.059C149.131 162.798 148.154 164.984 148.021 167.724C147.842 172.598 149.458 177.275 149.716 182.118C149.734 182.515 149.766 183.059 149.789 183.234C150.061 185.291 150.874 187.103 151.067 188.768C151.094 188.98 151.114 189.183 151.125 189.377C151.173 190.135 151.126 190.897 150.986 191.644C151.095 191.851 151.19 192.065 151.272 192.284C151.649 193.29 152.018 194.299 152.364 195.291C155.789 204.994 156.201 215.102 157.013 225.361C157.233 227.898 157.419 230.471 157.556 232.998C158.044 241.67 157.214 250.362 156.801 259.037C156.685 261.334 156.603 263.677 156.521 265.941C156.226 273.911 155.922 282.148 154.504 290.315C154.467 290.514 154.411 290.832 154.31 291.211C154.597 291.911 154.8 292.643 154.913 293.391C155.36 296.556 155.582 299.747 155.577 302.943C155.582 303.432 155.586 303.92 155.59 304.415C155.599 305.872 155.613 307.251 155.711 308.565L155.747 309.026C155.949 310.688 155.87 312.372 155.514 314.008C155.409 314.431 155.282 314.833 155.151 315.22C156.587 317.281 157.002 319.689 157.333 321.622C157.38 321.866 157.421 322.106 157.462 322.341C157.849 324.591 158.115 326.86 158.259 329.139C158.448 331.69 158.607 334.355 158.729 337.062C159.258 348.744 159.074 360.574 158.9 372.016C158.775 379.94 158.646 390.261 164.029 396.695C166.908 400.131 174.405 404.323 170.427 409.77C168.948 411.79 164.237 411.545 161.962 411.605L145.216 412.048C140.842 412.165 134.534 411.549 136.093 405.587C137.268 401.09 139.262 397.11 139.515 392.397C139.782 387.438 138.811 382.356 137.623 377.564C134.703 365.753 131.792 353.785 130.069 341.555C128.891 333.156 129.256 325.256 129.277 316.894C129.337 311.845 128.871 306.802 127.884 301.85C126.732 296.025 124.702 290.809 123.052 285.159C120.946 278.041 120.186 252.21 118.838 244.91C118.53 243.224 118.184 241.493 117.816 239.662C117.268 236.929 116.688 234.031 116.213 231.07C115.749 233.952 115.177 236.793 114.615 239.592C114.247 241.423 113.897 243.153 113.593 244.841C112.354 251.648 109.609 279.196 106.819 287.987C106.617 288.626 106.427 289.628 106.243 290.592C106.045 291.658 105.836 292.755 105.538 293.858C105.166 295.383 104.513 296.825 103.613 298.11C104.751 300.614 104.585 303.336 104.493 304.815C104.379 307.541 103.998 310.249 103.356 312.901C102.034 317.849 101.881 321.299 102.117 326.501C102.315 330.97 102.523 335.591 102.523 340.189V340.415L102.505 340.637C102.116 344.826 101.381 348.975 100.308 353.042C99.6695 355.579 98.9537 358.101 98.2628 360.537C97.54 363.095 96.8538 365.518 96.2459 367.958C94.0166 376.942 92.0229 385.474 92.1883 394.786C92.2464 397.801 92.4786 400.905 93.8139 403.608C94.8775 405.753 96.8207 410.014 94.0252 411.67C93.1708 412.107 92.2378 412.369 91.2809 412.44C82.8046 413.545 74.2087 412.689 65.7022 411.826C64.054 411.661 61.4745 411.563 60.5584 410.047C56.8619 406.287 63.9507 402.74 65.9148 400.555C68.4987 397.606 70.3677 394.099 71.3761 390.308C73.656 382.038 72.2284 372.915 71.8278 364.472C71.3302 353.933 71.2792 343.763 72.5738 333.281C73.2874 327.492 73.5498 321.608 75.1864 315.977C75.7531 313.781 76.132 311.54 76.319 309.28C76.7835 305.138 77.248 300.997 77.7124 296.855C77.9393 295.18 78.0423 293.491 78.0207 291.801C77.9069 289.118 77.5311 286.454 76.8985 283.845C75.6125 278.18 75.4325 272.01 75.079 266.225C74.6081 258.537 75.7855 250.934 75.7855 243.252C76.3882 232.334 75.7855 220.923 78.0021 210.209C78.5943 207.343 78.4202 204.458 78.9595 201.553C79.5279 198.493 79.186 195.013 79.186 191.902C79.6876 188.733 79.2672 185.56 79.6353 182.374C79.9302 179.837 80.5236 177.208 81.0577 174.602C81.1911 173.906 81.3916 173.225 81.6563 172.567C81.851 172.088 82.0982 171.632 82.3935 171.207C81.3938 167.544 81.979 162.975 81.7758 159.133C81.7344 158.358 81.6946 157.586 81.6563 156.818C81.5227 154.286 81.6783 129.53 81.5448 126.995C81.4762 127.005 81.4093 127.025 81.3462 127.054L81.6945 119.544L78.7975 114.696C73.3617 125.727 64.1266 144.109 61.9721 147.531C61.4464 148.385 60.8143 149.17 60.0911 149.865C60.0122 150.131 59.9152 150.391 59.8008 150.644L56.2047 158.616C55.3164 163.469 53.0842 167.899 50.4745 172.763L50.1674 173.34C49.4748 174.626 48.8252 175.84 48.2347 177.015C44.5545 184.373 44.7693 181.957 40.9085 189.22C36.9026 196.764 34.2042 204.913 31.155 212.9C30.0467 215.802 29.1334 218.656 27.8823 221.505C27.1182 223.249 26.3264 225.034 24.9899 226.383C24.2209 227.225 23.1857 227.776 22.0586 227.943C21.0813 228.061 20.0905 227.9 19.2011 227.477C18.0887 226.828 19.143 226.676 17.7334 227.205C16.0457 227.845 13.9946 227.82 12.9281 226.076C12.363 226.253 11.7663 226.307 11.1785 226.235C10.5906 226.162 10.0252 225.964 9.52012 225.654C9.01503 225.345 8.58204 224.93 8.25027 224.439C7.9185 223.947 7.69564 223.391 7.59671 222.806C7.60542 222.41 7.51778 222.017 7.34129 221.663C7.11199 221.397 6.83786 221.173 6.53139 221.002C5.4016 220.173 5.11012 218.548 5.43234 217.185C5.98039 214.869 8.19003 213.66 5.54729 212.049Z" stroke="#AFADC9" stroke-width="0.996" stroke-miterlimit="10"/>
</g>
<defs>
<clipPath id="clip0_5679_40999">
<rect width="231.788" height="250" fill="white"/>
</clipPath>
</defs>
</svg>
