<svg width="232" height="250" viewBox="0 0 232 250" fill="none" xmlns="http://www.w3.org/2000/svg">
<g clip-path="url(#clip0_5653_41068)">
<path d="M226.437 212.049C227.376 211.48 228.55 209.44 228.457 208.333C228.385 207.775 228.224 207.231 227.979 206.724C225.732 201.388 221.052 197.829 217.085 193.733C214.534 191.105 211.739 187.955 210.743 184.609C209.312 179.802 207.685 175.074 206.176 170.295C204.82 166.107 203.219 162.002 201.382 158.002C200.079 155.102 198.153 152.697 196.945 149.722C196.729 149.19 196.531 148.65 196.325 148.109C195.728 146.515 179.757 104.169 171.125 86.457C170.864 85.7925 170.595 85.1314 170.307 84.4773C169.294 82.1948 167.915 78.9942 166.335 77.1762C165.376 76.1557 164.299 75.2533 163.127 74.4879C161.942 73.6441 160.756 72.8016 159.568 71.9605C157.485 70.4844 152.683 69.7099 150.384 68.8152C149.704 68.5409 149.042 68.2252 148.402 67.8698C144.004 65.4902 133.967 63.8756 130.679 59.6791C130.432 59.3729 130.202 59.0526 129.992 58.7198C129.503 57.9347 129.158 57.0683 128.974 56.1617C128.78 55.2442 128.77 54.2974 128.946 53.3762C129.264 51.7803 130.182 50.4384 130.878 48.9995C131.845 46.9931 132.081 44.7105 132.947 42.6995C133.712 40.9239 134.786 39.6971 135.256 37.6768C135.823 35.0227 135.717 32.2689 134.948 29.6664C134.283 27.3187 133.233 26.3454 133.777 23.7361C134.169 21.6381 134.256 19.4944 134.035 17.3715C133.666 13.1704 130.928 7.52041 128.071 4.7489C123.742 0.556453 117.639 -0.591774 112.103 0.272179C110.8 0.513453 109.529 0.903603 108.314 1.43497L108.098 1.51751C104.484 2.94716 101.47 4.65354 98.5197 8.33436C96.6379 10.7733 95.34 13.6116 94.7259 16.6309C94.517 17.5677 94.3555 18.5144 94.2419 19.4675C94.0488 21.3457 93.9997 23.2359 94.0949 25.1216C94.1036 25.5367 94.1128 25.9425 94.1221 26.3425C94.1221 26.564 92.3243 27.9198 92.1175 28.3675C91.5457 29.5803 91.7066 30.3413 91.9001 31.7477C92.3751 35.0207 93.183 38.2367 94.3111 41.3454C95.1502 43.6885 96.7864 44.8594 97.8422 46.9268C98.009 47.2797 98.1432 47.6471 98.2431 48.0245C100.04 54.1029 101.423 59.7437 95.8828 63.2855L95.1855 63.7326C94.2082 64.3605 93.286 64.9535 92.3598 65.4902C91.9588 65.7227 91.5394 65.9512 91.1105 66.1821C90.3267 66.6065 89.5201 67.0489 88.7043 67.5564C87.6496 68.196 79.1376 68.9704 78.273 69.853C76.5004 70.182 74.7738 70.7239 73.131 71.4669C71.2278 72.4694 69.5149 73.7978 68.0699 75.3919C67.0983 76.4581 66.2021 77.5907 65.3877 78.7814C64.1403 80.6147 63.0634 82.5585 62.1704 84.5884C61.58 85.9338 61.043 87.3003 60.5596 88.6879C51.4042 107.478 37.0181 146.583 36.4452 148.114C36.2406 148.655 36.042 149.194 35.8252 149.727C34.6172 152.702 32.974 153.706 31.6177 157.895C30.107 162.677 26.5937 170.381 25.162 175.188C24.1643 178.535 23.1225 182.208 21.5699 185.329C19.926 188.632 17.4535 191.451 14.9032 194.079C10.9356 198.174 6.25583 201.735 4.00941 207.071C3.76432 207.578 3.60283 208.121 3.5312 208.68C3.43822 209.784 4.61189 211.826 5.55089 212.396C8.1965 214.007 5.985 215.215 5.43996 217.532C5.11746 218.895 5.4092 220.519 6.53996 221.348C6.84775 221.519 7.12305 221.743 7.3534 222.009C7.52969 222.364 7.61739 222.756 7.60904 223.152C7.70815 223.737 7.93123 224.294 8.26331 224.785C8.59539 225.277 9.02875 225.691 9.53426 226.001C10.0398 226.311 10.6057 226.508 11.194 226.581C11.7824 226.654 12.3794 226.6 12.9451 226.422C14.0125 228.166 16.0653 228.194 17.7539 227.551C19.1659 227.022 18.1101 227.174 19.2235 227.824C20.1136 228.247 21.1054 228.408 22.0836 228.289C23.2115 228.122 24.2475 227.572 25.0173 226.73C26.3537 225.381 27.1476 223.595 27.9123 221.851C29.1645 219.002 30.0785 216.149 31.1877 213.247C34.2401 205.259 38.8276 194.131 42.8375 186.587C46.7022 179.324 50.4042 171.973 54.0882 164.615C54.6792 163.439 55.5002 163.436 57.0407 158.621L60.6399 150.648C60.7544 150.396 60.8514 150.135 60.9304 149.869C61.6543 149.174 62.2869 148.39 62.8131 147.536C64.6289 144.654 71.4709 131.161 76.8359 120.384C80.0556 125.922 82.57 130.36 82.6008 130.762C82.8524 133.11 82.9494 157.697 82.8866 160.059C82.7297 162.798 83.7071 164.984 83.8408 167.724C84.0209 172.598 82.4027 177.275 82.1447 182.118C82.1261 182.515 82.094 183.059 82.0708 183.234C81.7988 185.291 80.9848 187.103 80.7924 188.768C80.7645 188.98 80.7453 189.183 80.7344 189.377C80.6867 190.135 80.733 190.897 80.8726 191.644C80.7644 191.851 80.669 192.065 80.5867 192.284C80.209 193.29 79.8407 194.299 79.495 195.291C76.0667 204.994 75.6541 215.102 74.8412 225.361C74.6204 227.898 74.4344 230.471 74.2978 232.998C73.8091 241.67 74.6401 250.362 75.0532 259.037C75.1695 261.334 75.2513 263.677 75.3344 265.941C75.6296 273.911 75.9336 282.148 77.3537 290.315C77.3897 290.514 77.4455 290.832 77.5466 291.211C77.2591 291.911 77.0566 292.643 76.9434 293.391C76.4963 296.556 76.2744 299.748 76.2792 302.943C76.2746 303.432 76.27 303.92 76.2653 304.415C76.2566 305.872 76.2426 307.251 76.1456 308.565L76.109 309.026C75.9065 310.688 75.9852 312.372 76.3415 314.008C76.4473 314.432 76.5739 314.833 76.7052 315.22C75.2677 317.281 74.8528 319.689 74.521 321.622C74.4745 321.866 74.4339 322.106 74.392 322.341C74.0044 324.591 73.7382 326.86 73.5948 329.139C73.4053 331.69 73.2461 334.355 73.1241 337.062C72.5941 348.744 72.7783 360.574 72.9538 372.016C73.0782 379.94 73.2072 390.261 67.819 396.695C64.938 400.131 57.4341 404.323 61.4161 409.77C62.8961 411.79 67.6115 411.545 69.8887 411.605L86.6485 412.048C91.0269 412.165 97.3401 411.549 95.7794 405.587C94.6039 401.09 92.6079 397.11 92.3545 392.397C92.0872 387.438 93.06 382.356 94.2488 377.564C97.1716 365.753 100.085 353.785 101.809 341.555C102.988 333.156 102.622 325.256 102.601 316.894C102.541 311.845 103.008 306.802 103.996 301.85C105.148 296.025 107.181 290.809 108.831 285.159C110.939 278.041 111.7 252.21 113.049 244.91C113.357 243.224 113.703 241.493 114.071 239.662C114.62 236.929 115.201 234.031 115.676 231.07C116.141 233.952 116.714 236.793 117.276 239.592C117.644 241.423 117.994 243.153 118.299 244.841C119.538 251.648 122.286 279.196 125.079 287.987C125.281 288.626 125.47 289.629 125.655 290.592C125.853 291.658 126.062 292.755 126.361 293.858C126.733 295.383 127.386 296.825 128.287 298.11C127.148 300.614 127.314 303.336 127.406 304.815C127.521 307.541 127.902 310.249 128.545 312.901C129.868 317.849 130.02 321.299 129.785 326.501C129.587 330.97 129.378 335.591 129.378 340.189V340.415L129.397 340.637C129.786 344.826 130.521 348.975 131.595 353.042C132.234 355.579 132.95 358.101 133.642 360.537C134.365 363.095 135.052 365.518 135.661 367.958C137.892 376.942 139.887 385.474 139.722 394.786C139.666 397.801 139.431 400.905 138.095 403.608C137.03 405.753 135.085 410.014 137.883 411.67C138.738 412.107 139.672 412.369 140.63 412.44C149.113 413.545 157.717 412.689 166.231 411.826C167.881 411.661 170.462 411.563 171.379 410.047C175.079 406.287 167.984 402.74 166.019 400.555C163.432 397.606 161.561 394.099 160.552 390.308C158.27 382.038 159.699 372.915 160.1 364.472C160.598 353.933 160.649 343.763 159.354 333.281C158.639 327.492 158.376 321.608 156.739 315.977C156.172 313.781 155.793 311.54 155.605 309.28C155.14 305.138 154.675 300.997 154.211 296.855C153.984 295.18 153.881 293.491 153.903 291.801C154.016 289.118 154.392 286.454 155.025 283.845C156.313 278.18 156.492 272.01 156.847 266.225C157.318 258.537 156.139 250.934 156.139 243.252C155.536 232.334 156.139 220.923 153.921 210.209C153.328 207.343 153.503 204.458 152.963 201.553C152.394 198.493 152.736 195.013 152.736 191.902C152.234 188.733 152.655 185.56 152.286 182.374C151.991 179.837 151.397 177.208 150.863 174.602C150.729 173.906 150.529 173.225 150.263 172.567C150.069 172.088 149.821 171.632 149.526 171.207C150.526 167.544 149.94 162.975 150.144 159.133C150.186 158.358 150.225 157.586 150.263 156.818C150.397 154.286 150.241 129.53 150.375 126.995C150.444 127.005 150.511 127.025 150.574 127.054L150.225 119.544L153.125 114.696C158.565 125.727 167.808 144.109 169.965 147.531C170.491 148.385 171.124 149.17 171.847 149.865C171.926 150.131 172.023 150.391 172.138 150.644L175.737 158.616C176.626 163.469 178.86 167.899 181.472 172.764L181.779 173.34C182.473 174.626 183.123 175.84 183.714 177.015C187.398 184.373 187.182 181.957 191.047 189.22C195.056 196.764 197.756 204.913 200.809 212.9C201.918 215.802 202.832 218.656 204.084 221.505C204.849 223.249 205.642 225.034 206.979 226.383C207.749 227.225 208.785 227.776 209.913 227.943C210.891 228.061 211.883 227.9 212.773 227.477C213.886 226.828 212.831 226.676 214.243 227.205C215.931 227.845 217.984 227.82 219.052 226.076C219.617 226.253 220.214 226.307 220.803 226.235C221.391 226.162 221.957 225.964 222.463 225.654C222.968 225.345 223.402 224.93 223.734 224.439C224.066 223.948 224.289 223.391 224.388 222.806C224.379 222.41 224.467 222.018 224.643 221.663C224.874 221.397 225.149 221.173 225.457 221.002C226.588 220.173 226.879 218.548 226.557 217.185C226.003 214.869 223.791 213.66 226.437 212.049Z" stroke="#AFADC9" stroke-width="0.996" stroke-miterlimit="10"/>
<path d="M116.385 188.059C117.475 188.059 118.359 187.647 118.359 187.138C118.359 186.63 117.475 186.218 116.385 186.218C115.295 186.218 114.411 186.63 114.411 187.138C114.411 187.647 115.295 188.059 116.385 188.059Z" fill="#AFADC9"/>
<path d="M83.6571 118.074C83.6571 118.074 88.7124 126.405 106.736 120.958" stroke="#AFADC9" stroke-width="0.919" stroke-miterlimit="10"/>
<path d="M144.611 118.074C144.611 118.074 139.556 126.405 121.532 120.958" stroke="#AFADC9" stroke-width="0.919" stroke-miterlimit="10"/>
</g>
<defs>
<clipPath id="clip0_5653_41068">
<rect width="231.988" height="250" fill="white"/>
</clipPath>
</defs>
</svg>
